HIERARCHY
ROOT Hips
{
	OFFSET 0.000000 0.000000 0.000000
	CHANNELS 6 Xposition Yposition Zposition Zrotation Yrotation Xrotation 
	JOINT LowerBack
	{
		OFFSET 0.000000 0.000000 0.000000
		CHANNELS 3 Zrotation Yrotation Xrotation
		JOINT Spine
		{
			OFFSET 0.028270 2.035590 -0.193380
			CHANNELS 3 Zrotation Yrotation Xrotation
			JOINT Spine1
			{
				OFFSET 0.056720 2.048850 -0.042750
				CHANNELS 3 Zrotation Yrotation Xrotation
				JOINT Neck
				{
					OFFSET 0.000000 0.000000 0.000000
					CHANNELS 3 Zrotation Yrotation Xrotation
					JOINT Neck1
					{
						OFFSET -0.054170 1.746240 0.172020
						CHANNELS 3 Zrotation Yrotation Xrotation
						JOINT Head
						{
							OFFSET 0.104070 1.761360 -0.123970
							CHANNELS 3 Zrotation Yrotation Xrotation
							End Site
							{
								OFFSET 0.000000 0.000000 0.000000
							}
						}
					}
				}
				JOINT LeftShoulder
				{
					OFFSET 0.000000 0.000000 0.000000
					CHANNELS 3 Zrotation Yrotation Xrotation
					JOINT LeftArm
					{
						OFFSET 3.362410 1.200890 -0.311210
						CHANNELS 3 Zrotation Yrotation Xrotation
						JOINT LeftForeArm
						{
							OFFSET 4.983000 -0.000000 -0.000000
							CHANNELS 3 Zrotation Yrotation Xrotation
							JOINT LeftHand
							{
								OFFSET 3.483560 -0.000000 -0.000000
								CHANNELS 3 Zrotation Yrotation Xrotation
								JOINT LeftFingerBase
								{
									OFFSET 0.000000 0.000000 0.000000
									CHANNELS 3 Zrotation Yrotation Xrotation
									JOINT LeftHandIndex1
									{
										OFFSET 0.715260 -0.000000 -0.000000
										CHANNELS 3 Zrotation Yrotation Xrotation
										End Site
										{
											OFFSET 0.000000 0.000000 0.000000
										}
									}
								}
								JOINT LThumb
								{
									OFFSET 0.000000 0.000000 0.000000
									CHANNELS 3 Zrotation Yrotation Xrotation
									End Site
									{
										OFFSET 0.000000 0.000000 0.000000
									}
								}
							}
						}
					}
				}
				JOINT RightShoulder
				{
					OFFSET 0.000000 0.000000 0.000000
					CHANNELS 3 Zrotation Yrotation Xrotation
					JOINT RightArm
					{
						OFFSET -3.136600 1.374050 -0.404650
						CHANNELS 3 Zrotation Yrotation Xrotation
						JOINT RightForeArm
						{
							OFFSET -5.241900 -0.000000 -0.000000
							CHANNELS 3 Zrotation Yrotation Xrotation
							JOINT RightHand
							{
								OFFSET -3.444170 -0.000000 -0.000000
								CHANNELS 3 Zrotation Yrotation Xrotation
								JOINT RightFingerBase
								{
									OFFSET 0.000000 0.000000 0.000000
									CHANNELS 3 Zrotation Yrotation Xrotation
									JOINT RightHandIndex1
									{
										OFFSET -0.622530 -0.000000 -0.000000
										CHANNELS 3 Zrotation Yrotation Xrotation
										End Site
										{
											OFFSET 0.000000 0.000000 0.000000
										}
									}
								}
								JOINT RThumb
								{
									OFFSET 0.000000 0.000000 0.000000
									CHANNELS 3 Zrotation Yrotation Xrotation
									End Site
									{
										OFFSET 0.000000 0.000000 0.000000
									}
								}
							}
						}
					}
				}
			}
		}
	}
}
}
MOTION
Frames: 18
Frame Time: 0.008333
4.937943 15.582147 -2.225053 -176.274218 40.809262 -151.198562 4.777446 -3.429912 9.101703 0.390975 -3.460164 -1.093067 -5.519550 -3.351310 -0.318581 2.960581 -11.042794 -5.177925 -3.291085 -0.248875 0.292675 0.000000 0.000000 0.000000 5.827136 3.427126 0.323371 -72.844827 -1.885864 13.162660 -179.435339 -84.146341 -179.976158 -4.039369 8.316691 -0.289014 0.051735 0.220933 -0.000000 0.000000 0.000000 0.000000 0.000000 0.000000 0.000000 5.556846 -8.289771 0.664590 69.119450 -9.986848 5.652240 0.413395 76.436804 -0.011906 -3.827108 2.014202 -0.076041 0.073765 -0.237097 0.000000 0.000000 0.000000 0.000000 0.000000 0.000000 0.000000 
5.058557 15.572152 -2.298113 -176.223634 40.098678 -151.124292 5.081506 -3.416271 9.195044 0.438971 -3.443783 -1.086794 -5.560564 -3.340583 -0.369511 3.182943 -10.790637 -5.130017 -3.299506 -0.249497 0.303481 0.000000 0.000000 0.000000 5.691204 3.331803 0.400292 -73.162644 -1.278744 12.741438 -179.542097 -85.457624 -179.978631 -3.714423 8.388220 -0.267989 0.044521 0.216314 -0.000000 0.000000 0.000000 0.000000 0.000000 0.000000 0.000000 5.849837 -8.071473 0.638864 69.120151 -9.325251 5.453099 0.415703 76.281121 -0.012892 -4.034994 1.955461 -0.078144 0.076465 -0.239045 0.000000 0.000000 0.000000 0.000000 0.000000 0.000000 0.000000 
5.176116 15.565317 -2.369354 -176.186058 39.382475 -151.028671 5.370039 -3.393410 9.279926 0.483149 -3.418446 -1.080335 -5.600452 -3.321242 -0.416968 3.416309 -10.525241 -5.074844 -3.303662 -0.249905 0.316255 0.000000 0.000000 0.000000 5.575762 3.228070 0.476894 -73.492803 -0.739374 12.299458 -179.651854 -86.881783 -179.981360 -3.342148 8.469111 -0.243362 0.036516 0.211558 -0.000000 0.000000 0.000000 0.000000 0.000000 0.000000 0.000000 6.139589 -7.839536 0.613474 69.143440 -8.660746 5.219260 0.417631 76.104150 -0.013955 -4.252424 1.884272 -0.079749 0.079124 -0.240940 0.000000 0.000000 0.000000 0.000000 0.000000 0.000000 0.000000 
5.290831 15.561406 -2.438626 -176.175499 38.670013 -150.926058 5.632127 -3.363670 9.358327 0.521904 -3.386354 -1.073312 -5.636746 -3.295416 -0.460733 3.656389 -10.257467 -5.012296 -3.302347 -0.250033 0.331119 0.000000 0.000000 0.000000 5.478457 3.105237 0.551887 -73.824859 -0.245309 11.828598 -179.761936 -88.389550 -179.984311 -2.922102 8.555663 -0.214738 0.027963 0.206660 -0.000000 0.000000 0.000000 0.000000 0.000000 0.000000 0.000000 6.416015 -7.605579 0.588882 69.186259 -7.978299 4.975774 0.419457 75.903694 -0.015047 -4.468391 1.800402 -0.080556 0.081646 -0.242714 0.000000 0.000000 0.000000 0.000000 0.000000 0.000000 0.000000 
5.402858 15.560109 -2.506069 -176.194473 37.959551 -150.819094 5.866297 -3.324333 9.426923 0.554925 -3.345027 -1.066054 -5.669474 -3.260535 -0.498746 3.903407 -9.984252 -4.941723 -3.296541 -0.249966 0.348311 0.000000 0.000000 0.000000 5.402523 2.977798 0.625588 -74.156986 0.183046 11.357702 -179.871182 -89.985173 -179.987375 -2.473049 8.649700 -0.183416 0.019103 0.201540 -0.000000 0.000000 0.000000 0.000000 0.000000 0.000000 0.000000 6.683435 -7.365004 0.562284 69.237153 -7.301474 4.722250 0.420462 75.705219 -0.016168 -4.683911 1.714027 -0.080861 0.084018 -0.244494 0.000000 0.000000 0.000000 0.000000 0.000000 0.000000 0.000000 
5.512240 15.561193 -2.571772 -176.247244 37.258884 -150.715640 6.067387 -3.277930 9.488524 0.581624 -3.296865 -1.057907 -5.697216 -3.218869 -0.529985 4.153600 -9.716125 -4.864717 -3.285838 -0.249664 0.367396 0.000000 0.000000 0.000000 5.341798 2.844157 0.697386 -74.477130 0.563201 10.885489 0.022740 -88.361871 0.009495 -1.999208 8.748032 -0.149598 0.010123 0.196207 -0.000000 0.000000 0.000000 0.000000 0.000000 0.000000 0.000000 6.935968 -7.129232 0.533561 69.288961 -6.613322 4.484679 0.420965 75.508490 -0.017272 -4.890234 1.626198 -0.080768 0.086188 -0.246225 0.000000 0.000000 0.000000 0.000000 0.000000 0.000000 0.000000 
5.619020 15.564418 -2.635943 -176.332640 36.571615 -150.617673 6.235436 -3.225209 9.544246 0.602217 -3.242610 -1.048667 -5.719582 -3.171073 -0.553705 4.404472 -9.456053 -4.782076 -3.270785 -0.249158 0.388123 0.000000 0.000000 0.000000 5.291128 2.709962 0.767559 -74.776640 0.900214 10.422245 -0.078657 -86.672031 0.006383 -1.513669 8.850535 -0.114085 0.001237 0.190635 -0.000000 0.000000 0.000000 0.000000 0.000000 0.000000 0.000000 7.172844 -6.901130 0.501832 69.332430 -5.913337 4.276397 0.420915 75.323005 -0.018344 -5.084563 1.542380 -0.080275 0.088153 -0.247946 0.000000 0.000000 0.000000 0.000000 0.000000 0.000000 0.000000 
5.723193 15.569585 -2.698780 -176.446805 35.899021 -150.525530 6.373734 -3.164925 9.594475 0.617416 -3.181095 -1.038705 -5.736514 -3.115978 -0.570679 4.653770 -9.194542 -4.692036 -3.252550 -0.248545 0.410934 0.000000 0.000000 0.000000 5.248163 2.585563 0.837242 -75.052054 1.189010 9.986450 -0.174978 -84.953937 0.003393 -1.035722 8.955835 -0.078176 -0.007339 0.184848 -0.000000 0.000000 0.000000 0.000000 0.000000 0.000000 0.000000 7.394987 -6.669624 0.465674 69.359346 -5.221556 4.092845 0.419832 75.168171 -0.019380 -5.267022 1.472245 -0.079982 0.089890 -0.249783 0.000000 0.000000 0.000000 0.000000 0.000000 0.000000 0.000000 
5.824668 15.576669 -2.760469 -176.584483 35.248007 -150.440001 6.483574 -3.100867 9.643909 0.627853 -3.115867 -1.027028 -5.747536 -3.057005 -0.580306 4.897627 -8.944853 -4.598063 -3.231040 -0.247776 0.434777 0.000000 0.000000 0.000000 5.200730 2.468762 0.906017 -75.289443 1.456084 9.570462 -0.264597 -83.248714 0.000576 -0.571602 9.061360 -0.042571 -0.015435 0.178873 -0.000000 0.000000 0.000000 0.000000 0.000000 0.000000 0.000000 7.598073 -6.449497 0.426085 69.364077 -4.509625 3.961641 0.418401 75.034593 -0.020339 -5.431489 1.412394 -0.079690 0.091419 -0.251635 0.000000 0.000000 0.000000 0.000000 0.000000 0.000000 0.000000 
5.923354 15.585541 -2.821165 -176.738617 34.618631 -150.359593 6.570548 -3.031173 9.694096 0.634671 -3.045082 -1.013930 -5.752669 -2.992352 -0.584337 5.133590 -8.692017 -4.497899 -3.207254 -0.246934 0.460180 0.000000 0.000000 0.000000 5.148124 2.371427 0.975303 -75.488659 1.693920 9.192955 -0.348222 -81.559694 -0.001965 -0.143515 9.163489 -0.008870 -0.022846 0.172794 -0.000000 0.000000 0.000000 0.000000 0.000000 0.000000 0.000000 7.781688 -6.223336 0.381981 69.343055 -3.803932 3.868198 0.416043 74.939848 -0.021240 -5.582758 1.374546 -0.080095 0.092743 -0.253685 0.000000 0.000000 0.000000 0.000000 0.000000 0.000000 0.000000 
6.019269 15.596266 -2.880932 -176.905585 34.017190 -150.285380 6.635913 -2.959742 9.749549 0.638398 -2.972368 -0.998528 -5.751760 -2.925551 -0.582872 5.358668 -8.446936 -4.394603 -3.181197 -0.245982 0.486203 0.000000 0.000000 0.000000 5.080025 2.289190 1.044577 -75.639169 1.930371 8.843924 -0.424921 -79.925467 -0.004195 0.243068 9.258182 0.022227 -0.029441 0.166672 -0.000000 0.000000 0.000000 0.000000 0.000000 0.000000 0.000000 7.943105 -6.003561 0.334890 69.294820 -3.078564 3.831447 0.413416 74.872025 -0.022052 -5.713933 1.350245 -0.080901 0.093860 -0.255789 -0.000000 0.000000 0.000000 0.000000 0.000000 0.000000 0.000000 
6.112266 15.608792 -2.939897 -177.076441 33.442460 -150.215671 6.684645 -2.884791 9.812850 0.640058 -2.895878 -0.980676 -5.744853 -2.854783 -0.577320 5.570673 -8.196986 -4.286793 -3.153243 -0.244948 0.513123 0.000000 0.000000 0.000000 4.998440 2.233139 1.114605 -75.744528 2.156233 8.539721 -0.496084 -78.343586 -0.006042 0.568982 9.338865 0.049022 -0.035079 0.160636 -0.000000 0.000000 0.000000 0.000000 0.000000 0.000000 0.000000 8.080005 -5.775029 0.284178 69.220586 -2.356143 3.833998 0.410033 74.841957 -0.022797 -5.830700 1.347646 -0.082506 0.094783 -0.258092 -0.000000 0.000000 0.000000 0.000000 0.000000 0.000000 0.000000 
6.202354 15.623127 -2.998082 -177.248850 32.897708 -150.152506 6.717188 -2.808996 9.887535 0.639865 -2.818075 -0.959746 -5.731990 -2.782456 -0.568285 5.767372 -7.952054 -4.176779 -3.123204 -0.243796 0.540261 0.000000 0.000000 0.000000 4.897435 2.194818 1.184521 -75.798980 2.396728 8.268429 -0.561340 -76.843288 -0.007470 0.827550 9.401569 0.070713 -0.039630 0.154722 -0.000000 0.000000 0.000000 0.000000 0.000000 0.000000 0.000000 8.189905 -5.548501 0.231797 69.122907 -1.617766 3.885935 0.406490 74.836535 -0.023456 -5.928745 1.357681 -0.084611 0.095525 -0.260462 0.000000 0.000000 0.000000 0.000000 0.000000 0.000000 0.000000 
6.289686 15.639265 -3.055470 -177.421258 32.383341 -150.098016 6.734232 -2.732326 9.975668 0.638035 -2.738803 -0.935396 -5.713048 -2.708403 -0.556348 5.947650 -7.707373 -4.064914 -3.091032 -0.242514 0.567465 0.000000 0.000000 0.000000 4.780249 2.179890 1.254332 -75.805666 2.650158 8.037445 -0.621806 -75.425189 -0.008462 1.009396 9.441276 0.086103 -0.043068 0.149014 -0.000000 0.000000 0.000000 0.000000 0.000000 0.000000 0.000000 8.271243 -5.318001 0.177835 69.006397 -0.871661 3.976140 0.402666 74.855585 -0.024037 -6.009479 1.380327 -0.087015 0.096078 -0.262920 -0.000000 0.000000 0.000000 0.000000 0.000000 0.000000 0.000000 
6.374294 15.657134 -3.112126 -177.589804 31.898485 -150.052529 6.736530 -2.655571 10.078322 0.634687 -2.658780 -0.907486 -5.688502 -2.633327 -0.542161 6.110596 -7.468344 -3.952293 -3.056631 -0.241089 0.594453 0.000000 0.000000 0.000000 4.647164 2.181278 1.323137 -75.766358 2.929884 7.839603 -0.677794 -74.100273 -0.009020 1.109375 9.455397 0.094592 -0.045336 0.143524 -0.000000 0.000000 0.000000 0.000000 0.000000 0.000000 0.000000 8.323162 -5.088914 0.123732 68.875331 -0.112366 4.102862 0.398876 74.890896 -0.024529 -6.070596 1.407090 -0.089520 0.096448 -0.265362 -0.000000 0.000000 0.000000 0.000000 0.000000 0.000000 0.000000 
6.456389 15.676602 -3.167988 -177.755762 31.441254 -150.019241 6.723353 -2.577734 10.195549 0.629776 -2.576973 -0.875788 -5.657947 -2.556173 -0.525246 6.255777 -7.232151 -3.839847 -3.019586 -0.239485 0.620962 0.000000 0.000000 0.000000 4.505650 2.206856 1.390594 -75.688101 3.224784 7.684569 -0.730836 -72.855269 -0.009159 1.123115 9.441561 0.095679 -0.046506 0.138285 0.000000 0.000000 0.000000 0.000000 0.000000 0.000000 0.000000 8.343781 -4.857007 0.069057 68.735057 0.648859 4.254021 0.394967 74.941822 -0.024954 -6.117365 1.441508 -0.092225 0.096664 -0.267849 -0.000000 0.000000 0.000000 0.000000 0.000000 0.000000 0.000000 
6.536116 15.697529 -3.223151 -177.918684 31.009095 -149.998794 6.694009 -2.498821 10.325977 0.623177 -2.493418 -0.840315 -5.621578 -2.476946 -0.504921 6.383174 -7.002272 -3.729102 -2.979648 -0.237676 0.646620 0.000000 0.000000 0.000000 4.360933 2.257568 1.455932 -75.576572 3.532691 7.573492 -0.781855 -71.683849 -0.008918 1.051731 9.400938 0.089566 -0.046669 0.133266 0.000000 0.000000 0.000000 0.000000 0.000000 0.000000 0.000000 8.332800 -4.625511 0.014029 68.589812 1.410947 4.424285 0.391054 75.003030 -0.025319 -6.150967 1.480027 -0.094930 0.096748 -0.270335 -0.000000 0.000000 0.000000 0.000000 0.000000 0.000000 0.000000 
6.613724 15.719747 -3.277709 -178.081132 30.601147 -149.992658 6.647960 -2.420010 10.466334 0.614544 -2.409416 -0.802121 -5.580533 -2.396988 -0.482705 6.493443 -6.786708 -3.620112 -2.937493 -0.235725 0.671573 0.000000 0.000000 0.000000 4.212072 2.314324 1.518269 -75.432743 3.876892 7.486087 -0.830320 -70.599815 -0.008348 0.902579 9.339212 0.076852 -0.045871 0.128352 0.000000 0.000000 0.000000 0.000000 0.000000 0.000000 0.000000 8.294644 -4.403692 -0.039234 68.440733 2.181334 4.613771 0.387588 75.066865 -0.025595 -6.164920 1.508039 -0.096835 0.096684 -0.272626 -0.000000 0.000000 0.000000 0.000000 0.000000 0.000000 0.000000 
